<svg width="34" height="32" viewBox="0 0 34 32" fill="none" xmlns="http://www.w3.org/2000/svg">
<g clip-path="url(#clip0_49_250)">
<path d="M31.7078 13.8936C31.313 13.8936 30.903 13.9705 30.4889 14.1222L25.7462 15.8591C27.3609 14.3938 28.3665 12.3478 28.3665 10.086C28.3665 5.64193 24.4892 2.02637 19.7233 2.02637C15.5364 2.02637 12.0364 4.81712 11.2475 8.50835C10.1284 7.41677 8.55367 6.73475 6.81024 6.73475C3.42365 6.73475 0.668457 9.30394 0.668457 12.462C0.668457 14.4328 1.74158 16.1742 3.37146 17.205C3.2919 17.2343 3.21394 17.2684 3.14063 17.3123C2.76092 17.5403 2.53142 17.9325 2.53142 18.3536V26.4825C2.53142 27.9849 3.84215 29.2071 5.45329 29.2071H21.7892C23.4004 29.2071 24.7111 27.9849 24.7111 26.4825V23.3797C25.0292 23.6042 25.3742 23.787 25.7192 23.9133L30.4892 25.6607C30.9031 25.8123 31.3131 25.889 31.7078 25.889C32.9592 25.889 33.8673 25.0985 33.8673 24.0093V15.7732C33.8672 14.6839 32.959 13.8936 31.7078 13.8936Z" fill="#D1D1D1"/>
<path d="M32.7163 23.9681C32.7163 24.5575 32.0122 24.7817 31.1517 24.4666L26.3819 22.7194C25.5214 22.4043 24.8174 21.6641 24.8174 21.075V18.6252C24.8174 18.0359 25.5214 17.2958 26.3819 16.9806L31.1517 15.2336C32.0122 14.9184 32.7163 15.1427 32.7163 15.732V23.9681Z" fill="#454545"/>
<path d="M19.9005 3.22363C15.8605 3.22363 12.5854 6.27768 12.5854 10.0448C12.5854 13.8119 15.8605 16.8664 19.9005 16.8664C23.9405 16.8664 27.2155 13.812 27.2155 10.0448C27.2155 6.27756 23.9405 3.22363 19.9005 3.22363ZM17.672 9.04316C16.6637 8.54988 15.4837 7.74018 15.1636 7.44159C14.63 6.94397 14.9851 6.46853 15.5189 5.97091C16.0527 5.47317 16.5625 5.14201 17.0962 5.63962C17.4162 5.93809 18.2847 7.03834 18.8137 7.97871C18.5612 8.06849 18.3239 8.20683 18.1203 8.39669C17.9167 8.58642 17.7685 8.80773 17.672 9.04316ZM19.9005 11.4972C19.0403 11.4972 18.3431 10.847 18.3431 10.0448C18.3431 9.2428 19.0403 8.59261 19.9005 8.59261C20.7606 8.59261 21.4577 9.2428 21.4577 10.0448C21.4576 10.847 20.7605 11.4972 19.9005 11.4972Z" fill="#454545"/>
<path d="M6.98762 7.93188C4.32911 7.93188 2.17383 9.94154 2.17383 12.4207C2.17383 14.8998 4.32911 16.9094 6.98762 16.9094C9.64613 16.9094 11.8013 14.8997 11.8013 12.4207C11.8013 9.94166 9.64599 7.93188 6.98762 7.93188ZM5.14458 15.2864C4.76952 15.6361 4.41092 15.4032 4.03586 15.0534C3.66053 14.7034 3.41084 14.369 3.78591 14.0193C4.01089 13.8094 4.84057 13.2401 5.54966 12.8932C5.61726 13.0587 5.72152 13.2144 5.86469 13.3478C6.00759 13.4812 6.17441 13.5785 6.35198 13.6416C5.98023 14.3027 5.36956 15.0763 5.14458 15.2864ZM6.98762 13.3843C6.41679 13.3843 5.95407 12.953 5.95407 12.4207C5.95407 11.8884 6.41679 11.457 6.98762 11.457C7.55831 11.457 8.02103 11.8884 8.02103 12.4207C8.02103 12.9529 7.55831 13.3843 6.98762 13.3843Z" fill="#454545"/>
<path d="M19.8121 18.8479C17.1867 18.8479 14.8093 17.8425 13.0966 16.2239H12.5075C11.2448 17.8387 9.2017 18.8909 6.899 18.8909C5.8786 18.8909 4.91 18.6827 4.03662 18.3123V26.4412C4.03662 27.2586 4.75381 27.9273 5.63037 27.9273H21.9663C22.8429 27.9273 23.5601 27.2586 23.5601 26.4412V18.1224C22.4104 18.5882 21.1433 18.8479 19.8121 18.8479Z" fill="#454545"/>
</g>
<defs>
<clipPath id="clip0_49_250">
<rect width="34" height="31.7046" fill="white"/>
</clipPath>
</defs>
</svg>
